<svg xmlns="http://www.w3.org/2000/svg" width="20" height="20" viewBox="0 0 20 20">
  <path d="M8.28999998,11.29 C8.19895935,11.3851037 8.12759437,11.4972487 8.07999998,11.62 C7.97998197,11.8634614 7.97998197,12.1365386 8.07999998,12.38 C8.12759437,12.5027513 8.19895935,12.6148963 8.28999998,12.71 L11.29,15.71 C11.6821222,16.1021222 12.3178778,16.1021222 12.71,15.71 C13.1021222,15.3178778 13.1021222,14.6821222 12.71,14.29 L11.41,13 L15,13 C15.5522848,13 16,12.5522848 16,12 C16,11.4477152 15.5522848,11 15,11 L11.41,11 L12.71,9.70999999 C12.8993127,9.52223339 13.0057983,9.26663752 13.0057983,8.99999999 C13.0057983,8.73336245 12.8993127,8.47776659 12.71,8.28999998 C12.5222334,8.10068733 12.2666375,7.99420166 12,7.99420166 C11.7333625,7.99420166 11.4777666,8.10068733 11.29,8.28999998 L8.28999998,11.29 Z M1.99999996,12 C1.99999996,17.5228475 6.47715248,22 12,22 C17.5228475,22 22,17.5228475 22,12 C22,6.47715248 17.5228475,1.99999996 12,1.99999996 C6.47715248,1.99999996 1.99999996,6.47715248 1.99999996,12 Z M20,12 C20,16.418278 16.418278,20 12,20 C7.58172198,20 3.99999997,16.418278 3.99999997,12 C3.99999997,7.58172198 7.58172198,3.99999997 12,3.99999997 C14.1217319,3.99999997 16.1565632,4.84285469 17.6568543,6.34314573 C19.1571453,7.84343676 20,9.87826807 20,12 Z" transform="translate(-2 -2)"/>
</svg>
