<svg xmlns="http://www.w3.org/2000/svg" width="282" height="29" viewBox="0 0 282 29">
  <path fill="#D60F3C" d="M23.0623431.760108057L1.86021991.760108057C.87611564.760108057.0782293839 1.55799431.0782293839 2.54209858.0782293839 3.52620284.87611564 4.3240891 1.86021991 4.3240891L10.679291 4.3240891 10.679291 26.2497005C10.679291 27.2338047 11.4771773 28.031691 12.4612815 28.031691 13.4453858 28.031691 14.243272 27.2338047 14.243272 26.2497005L14.243272 4.3240891 23.0623431 4.3240891C24.0464474 4.3240891 24.8443336 3.52620284 24.8443336 2.54209858 24.8443336 1.55799431 24.0464474.760108057 23.0623431.760108057M71.1234294.128837915C70.1393251.128837915 69.3414389.926724171 69.3414389 1.91082844L69.3414389 12.613909 52.7038844 12.613909 52.7038844 1.91082844C52.7038844.926724171 51.9059981.128837915 50.9218938.128837915 49.9377896.128837915 49.1399033.926724171 49.1399033 1.91082844L49.1399033 26.2497005C49.1399033 27.2338047 49.9377896 28.031691 50.9218938 28.031691 51.9059981 28.031691 52.7038844 27.2338047 52.7038844 26.2497005L52.7038844 16.17789 69.3414389 16.17789 69.3414389 26.2497005C69.3414389 27.2338047 70.1393251 28.031691 71.1234294 28.031691 72.1075336 28.031691 72.9054199 27.2338047 72.9054199 26.2497005L72.9054199 1.91082844C72.9054199.926724171 72.1075336.128837915 71.1234294.128837915M111.438381 1.17165877C111.425016 1.14225592 111.404969 1.11775355 111.390267 1.08879621 111.360864 1.03266351 111.330125.978312796 111.294931.925298578 111.2633.878521327 111.229888.834417062 111.195139.791203791 111.157718.745317536 111.118959.70121327 111.077082.659336493 111.035651.617459716 110.992438.578701422 110.946997.541725118 110.904229.50563981 110.85968.471781991 110.812457.439706161 110.760334.404511848 110.706428.373772512 110.651187.344815166 110.622675.328777251 110.598173.308729858 110.568324.294919431 110.547386.285563981 110.525111.281554502 110.503727.27264455 110.446703.249033175 110.388789.229876777 110.329537.212056872 110.274741.19557346 110.220836.17864455 110.16604.167952607 110.110353.156815166 110.053774.151023697 109.997196.145232227 109.938391.139440758 109.88003.133203791 109.82167.132758294 109.765983.132758294 109.710741.138549763 109.655054.143004739 109.594912.148796209 109.536106.154587678 109.478191.165725118 109.424732.176417062 109.373054.191563981 109.320931.2067109 109.259007.224976303 109.198864.244132701 109.139168.268635071 109.11912.276654028 109.097736.280218009 109.077689.28957346 109.048732.302492891 109.02512.322094787 108.9975.336350711 108.94003.366199052 108.884789.397829384 108.830438.433469194 108.784106.464654028 108.740447.497175355 108.698125.531924171 108.651793.569345972 108.607689.608104265 108.565812.649981043 108.52349.69185782 108.484732.735516588 108.44731.780957346 108.41167.823725118 108.378703.867383886 108.347073.914161137 108.310988.966729858 108.279357 1.02152607 108.249955 1.07765877 108.234808 1.10617062 108.215206 1.12978199 108.20095 1.15963033L96.8839735 25.4980569C96.4687697 26.3903886 96.8563526 27.4502275 97.7486844 27.8654313 97.9914806 27.9785877 98.2471962 28.0320474 98.4984569 28.0320474 99.1702673 28.0320474 99.8135659 27.6502559 100.115613 27.0011659L109.800732 6.17236967 119.287604 26.9886919C119.586533 27.6444645 120.233395 28.0320474 120.910106 28.0320474 121.157357 28.0320474 121.408618 27.9803697 121.648296 27.8712227 122.543746 27.4631469 122.938457 26.4064265 122.530381 25.5105308L111.438381 1.17165877zM169.826815 8.17042654C169.826815 6.12425592 169.129166 4.35563033 167.808265 3.05655924 165.305905.592957346 161.495118.578255924 161.090607.588947867L148.947678.588947867C147.963573.588947867 147.165687 1.38683412 147.165687 2.37093839L147.165687 26.2496114C147.165687 27.2337156 147.963573 28.0316019 148.947678 28.0316019 149.931782 28.0316019 150.729668 27.2337156 150.729668 26.2496114L150.729668 4.15292891 161.111991 4.15292891C161.120455 4.15292891 161.129365 4.15248341 161.137829 4.15248341 161.918787 4.15248341 164.113308 4.41042654 165.317934 5.60569668 165.954104 6.23652133 166.262834 7.07583886 166.262834 8.17042654 166.262834 12.0587299 163.153706 12.4832891 162.476104 12.5282844L161.202427 12.5282844 161.128028 12.5282844 160.335488 12.5282844C159.351384 12.5282844 158.553498 13.3261706 158.553498 14.3102749 158.553498 15.2943791 159.351384 16.0922654 160.335488 16.0922654L161.140057 16.0922654C161.843943 16.0971659 164.085687 16.3323886 165.308133 17.5356777 165.95054 18.1678389 166.262834 19.0098294 166.262834 20.1102085L166.262834 26.2496114C166.262834 27.2337156 167.06072 28.0316019 168.044825 28.0316019 169.028929 28.0316019 169.826815 27.2337156 169.826815 26.2496114L169.826815 20.1102085C169.826815 18.0640379 169.129166 16.2954123 167.808265 14.9954502 167.581953 14.7731469 167.34272 14.577128 167.098588 14.3926919 168.617289 13.1822749 169.826815 11.2194123 169.826815 8.17042654M233.244962 1.17165877C233.231597 1.14181043 233.21155 1.11730806 233.196403 1.08835071 233.167445 1.03266351 233.136706.978758294 233.101957.926189573 233.069882.878521327 233.036024.833971564 233.000829.790312796 232.964299.744872038 232.925986.701658768 232.884555.660672986 232.842678.617905213 232.798573.578255924 232.752687.540388626 232.710365.50563981 232.666261.472227488 232.620374.440597156 232.56736.404957346 232.512564.373327014 232.456431.343924171 232.428365.328331754 232.404308.308729858 232.374905.294919431 232.353967.285563981 232.332583.282 232.311645.273090047 232.25373.249033175 232.194924.229876777 232.134782.211611374 232.080877.195127962 232.027417.17864455 231.973066.167952607 231.916934.156815166 231.860801.151023697 231.803332.14478673 231.744972.139440758 231.686611.133203791 231.628251.132758294 231.572564.132758294 231.517768.138549763 231.462081.143004739 231.401938.148796209 231.342687.154587678 231.284327.165725118 231.231313.176417062 231.180081.191563981 231.127957.2067109 231.066033.224530806 231.005445.244132701 230.945749.268635071 230.925256.276654028 230.904318.280218009 230.88427.28957346 230.855758.302492891 230.831701.322094787 230.803635.336350711 230.746611.366199052 230.69137.397829384 230.637019.433469194 230.590687.464654028 230.547028.497175355 230.504261.531924171 230.458374.569345972 230.41427.608104265 230.372393.649981043 230.330071.69185782 230.290867.735516588 230.253445.780957346 230.218697.823725118 230.184839.867383886 230.153654.914161137 230.117569.966729858 230.085938 1.02152607 230.05609 1.07765877 230.041389 1.10617062 230.021341 1.12978199 230.007531 1.15963033L218.691 25.4980569C218.275796 26.3903886 218.663379 27.4502275 219.555265 27.8654313 219.798507 27.9785877 220.054223 28.0320474 220.305483 28.0320474 220.977294 28.0320474 221.620592 27.6502559 221.92264 27.0011659L231.607313 6.17236967 241.094185 26.9886919C241.393114 27.6444645 242.039976 28.0320474 242.716687 28.0320474 242.963938 28.0320474 243.215199 27.9803697 243.454877 27.8712227 244.350327 27.4631469 244.745038 26.4064265 244.336962 25.5105308L233.244962 1.17165877zM280.189275.48122654C279.205171.48122654 278.407284 1.2791128 278.407284 2.26321706L278.407284 26.6020891C278.407284 27.5861934 279.205171 28.3840796 280.189275 28.3840796 281.173379 28.3840796 281.971265 27.5861934 281.971265 26.6020891L281.971265 2.26321706C281.971265 1.2791128 281.173379.48122654 280.189275.48122654" transform="translate(0 .286)"/>
</svg>
