<svg xmlns="http://www.w3.org/2000/svg" width="353" height="341" viewBox="0 0 353 341">
  <path fill="#D60F3C" d="M316.468805,178.142405 C319.076092,167.210935 320.426185,155.898413 320.426185,144.376174 C320.426185,132.85449 319.076092,121.541968 316.468249,110.610498 C329.335019,120.634674 339.740803,132.003381 347.269505,144.376174 C339.740803,156.749523 329.335019,168.118229 316.468805,178.142405 L316.468805,178.142405 Z M274.991968,243.32347 C257.332841,260.982598 235.782531,273.33147 212.276338,279.589071 L249.028128,215.933327 C260.956453,212.570054 272.404707,208.366242 283.212126,203.352485 C292.353485,199.110846 300.857346,194.375785 308.667526,189.209051 C301.873671,209.368103 290.474369,227.841625 274.991968,243.32347 L274.991968,243.32347 Z M176.045784,333.442594 L148.765784,286.191565 C157.665161,287.884327 166.788162,288.7588 176.045784,288.7588 C185.303962,288.7588 194.426407,287.884327 203.325784,286.191565 L176.045784,333.442594 Z M77.1001556,243.32347 C61.6188669,227.841625 50.2190088,209.368103 43.425154,189.209608 C51.2353334,194.375785 59.7386385,199.110846 68.8805537,203.352485 C79.6874166,208.366242 91.1356711,212.570054 103.063439,215.932771 L139.815229,279.588515 C116.309593,273.33147 94.7587266,260.982598 77.1001556,243.32347 L77.1001556,243.32347 Z M4.82206264,144.376174 C12.3513204,132.003381 22.7576613,120.634118 35.6244313,110.609942 C33.0171442,121.541412 31.6659387,132.85449 31.6659387,144.376174 C31.6659387,155.898413 33.0165879,167.211492 35.623875,178.142962 C22.7571051,168.118785 12.3513204,156.749523 4.82206264,144.376174 L4.82206264,144.376174 Z M6.08036933,39.0522323 L77.303198,39.0522323 C76.1733922,40.1125031 75.0535993,41.1855684 73.9532763,42.2858914 C58.2505879,57.9874672 46.620986,76.6734884 39.5712421,97.0606157 L6.08036933,39.0522323 Z M176.045784,4.44991093 C207.949588,4.44991093 238.218484,15.0615194 262.836125,34.6019876 L89.255999,34.6019876 C113.87364,15.0615194 144.142536,4.44991093 176.045784,4.44991093 L176.045784,4.44991093 Z M346.010642,39.0522323 L312.520882,97.0595031 C305.470581,76.6729321 293.840979,57.9874672 278.138847,42.2858914 C277.038524,41.1855684 275.918175,40.1125031 274.788926,39.0522323 L346.010642,39.0522323 Z M43.4257103,99.5432959 C50.2195651,79.3859126 61.6188669,60.9135031 77.1001556,45.4327706 C79.3135961,43.2193302 81.5926777,41.097676 83.9246059,39.0522323 L268.168074,39.0522323 C270.499446,41.097676 272.779084,43.2193302 274.991968,45.4327706 C290.473813,60.9135031 301.873115,79.3859126 308.66697,99.5432959 C300.85679,94.3771181 292.353485,89.6415015 283.212126,85.4004183 C251.628183,70.7474313 214.570996,63.002893 176.045784,63.002893 C137.520572,63.002893 100.46394,70.7474313 68.8805537,85.4004183 C59.7386385,89.6415015 51.2358897,94.3765618 43.4257103,99.5432959 L43.4257103,99.5432959 Z M36.1161834,144.376174 C36.1161834,131.974454 37.7282845,119.821948 40.8351116,108.149513 L99.8403498,210.349939 C89.733844,207.28817 80.0017152,203.606149 70.7535504,199.315557 C59.993415,194.323495 50.1461361,188.641645 41.3129566,182.370694 C37.8901622,170.159779 36.1161834,157.404821 36.1161834,144.376174 L36.1161834,144.376174 Z M242.950206,217.559891 L206.298547,281.042632 C196.474076,283.197663 186.345875,284.308555 176.045784,284.308555 C165.746249,284.308555 155.618048,283.197663 145.793577,281.042632 L109.141917,217.559891 C130.337877,222.958038 152.926762,225.750567 176.045784,225.750567 C199.165361,225.750567 221.753691,222.958038 242.950206,217.559891 L242.950206,217.559891 Z M176.045784,221.300322 C151.745779,221.300322 128.054345,218.166793 106.005051,212.127255 L43.9102307,104.575966 C52.0647478,99.0176108 61.0364411,93.9460007 70.7535504,89.4379028 C101.753955,75.0552682 138.163632,67.4531377 176.045784,67.4531377 C213.928492,67.4531377 250.338169,75.0552682 281.33913,89.4379028 C291.055126,93.9460007 300.02682,99.0170545 308.181337,104.575966 L246.087072,212.127811 C224.037779,218.166793 200.346345,221.300322 176.045784,221.300322 L176.045784,221.300322 Z M310.779167,182.370138 C301.946544,188.641645 292.098152,194.323495 281.33913,199.315557 C272.090965,203.606149 262.35828,207.288727 252.251218,210.350495 L311.257012,108.1484 C314.363839,119.821392 315.97594,131.973898 315.97594,144.376174 C315.97594,157.404821 314.202518,170.159223 310.779167,182.370138 L310.779167,182.370138 Z M351.734769,145.585528 C351.960063,145.237296 352.091345,144.822311 352.091345,144.376174 C352.091345,143.937268 351.963957,143.528402 351.744226,143.183508 C343.027309,128.466549 330.442573,115.115815 314.626404,103.662554 C314.538511,103.363275 314.455625,103.062327 314.366064,102.763604 L351.79151,37.9396711 C352.18925,37.251552 352.18925,36.4032241 351.79151,35.7145488 C351.394325,35.0264297 350.659479,34.6019876 349.864554,34.6019876 L269.834691,34.6019876 C243.711754,12.2128065 210.818883,-0.000333768352 176.045784,-0.000333768352 C141.273797,-0.000333768352 108.380369,12.2128065 82.257433,34.6019876 L2.2270137,34.6019876 C1.43208874,34.6019876 0.697242088,35.0264297 0.300057749,35.7145488 C-0.0976828711,36.4032241 -0.0976828711,37.251552 0.300057749,37.9396711 L37.7260594,102.764717 C37.6370545,103.062883 37.5536124,103.363275 37.4662763,103.662554 C21.6556695,115.111364 9.07427145,128.456536 0.357354649,143.166263 C0.131504731,143.514495 0.000222512235,143.930593 0.000222512235,144.376174 C0.000222512235,144.815635 0.127610767,145.225058 0.347897879,145.569952 C9.06481468,160.286911 21.6495504,173.637089 37.4657201,185.09035 C44.1755765,208.04805 56.5706206,229.087138 73.9532763,246.47035 C93.2322927,265.749922 117.007169,278.895945 142.910931,284.950503 L174.118828,339.0054 C174.516012,339.693519 175.251415,340.117962 176.045784,340.117962 C176.840709,340.117962 177.575555,339.693519 177.97274,339.0054 L209.181193,284.950503 C235.084955,278.896501 258.859275,265.749922 278.138847,246.47035 C295.522059,229.087138 307.917103,208.047493 314.626404,185.089793 C330.436454,173.640983 343.018408,160.295811 351.734769,145.585528 L351.734769,145.585528 Z" opacity=".253" transform="translate(0 .556)"/>
</svg>
