<svg xmlns="http://www.w3.org/2000/svg" width="87" height="22" viewBox="0 0 87 22">
  <path fill="#FFF" d="M36.3521805,20.7889447 L36.3521805,6.54271357 L36.2473196,6.54271357 L30.5848305,20.7889447 L28.3827514,20.7889447 L22.7202622,6.54271357 L22.6154013,6.54271357 L22.6154013,20.7889447 L19.9938786,20.7889447 L19.9938786,1.47738693 L23.3494277,1.47738693 L29.4313605,16.8844221 L29.5362214,16.8844221 L35.6181542,1.47738693 L39.0785642,1.47738693 L39.0785642,20.7889447 L36.3521805,20.7889447 L36.3521805,20.7889447 Z M53.8639525,20.7889447 L51.1375688,20.7889447 L51.1375688,18.361809 L51.0327079,18.361809 C50.2986815,20.0502513 48.8306288,21 46.7334106,21 C43.6924442,21 41.9098088,18.9949749 41.9098088,15.7236181 L41.9098088,6.64824121 L44.7410533,6.64824121 L44.7410533,15.1959799 C44.7410533,17.3065327 45.7896624,18.4673367 47.6771588,18.4673367 C49.774377,18.4673367 50.927847,16.9899497 50.927847,14.7738693 L50.927847,6.64824121 L53.7590916,6.64824121 L53.8639525,20.7889447 L53.8639525,20.7889447 Z M61.6236598,6.43718593 C64.874348,6.43718593 66.8667053,8.23115578 66.9715662,10.8693467 L64.3500435,10.8693467 C64.1403216,9.49748744 63.1965735,8.65326633 61.6236598,8.65326633 C60.0507462,8.65326633 59.0021371,9.3919598 59.0021371,10.5527638 C59.0021371,11.3969849 59.6313025,12.0301508 61.0993553,12.3467337 L63.3014344,12.8743719 C66.1326789,13.5075377 67.181288,14.6683417 67.181288,16.6733668 C67.181288,19.2060302 64.874348,21 61.6236598,21 C58.1632498,21 56.0660316,19.3115578 55.8563098,16.5678392 L58.6875543,16.5678392 C58.8972762,18.0452261 59.9458853,18.7839196 61.6236598,18.7839196 C63.3014344,18.7839196 64.3500435,18.0452261 64.3500435,16.8844221 C64.3500435,15.9346734 63.8257389,15.4070352 62.3576862,15.0904523 L60.1556071,14.5628141 C57.5340843,13.9296482 56.2757534,12.6633166 56.2757534,10.5527638 C56.2757534,8.12562814 58.3729716,6.43718593 61.6236598,6.43718593 Z M69.2785062,2.95477387 C69.2785062,2.00502513 70.0125326,1.26633166 70.9562808,1.26633166 C71.900029,1.26633166 72.6340553,2.00502513 72.6340553,2.95477387 C72.6340553,3.90452261 71.900029,4.64321608 70.9562808,4.64321608 C70.0125326,4.64321608 69.2785062,3.90452261 69.2785062,2.95477387 L69.2785062,2.95477387 Z M69.4882281,6.64824121 L72.3194726,6.64824121 L72.3194726,20.7889447 L69.4882281,20.7889447 L69.4882281,6.64824121 Z M84.2736163,11.5025126 C83.9590336,10.0251256 82.9104245,8.75879397 81.0229281,8.75879397 C78.820849,8.75879397 77.3527963,10.6582915 77.3527963,13.6130653 C77.3527963,16.6733668 78.820849,18.4673367 81.0229281,18.4673367 C82.8055636,18.4673367 83.8541727,17.5175879 84.2736163,15.8291457 L87,15.8291457 C86.6854173,18.7839196 84.3784773,20.8944724 81.0229281,20.8944724 C77.0382136,20.8944724 74.5215517,18.1507538 74.5215517,13.6130653 C74.5215517,9.18090452 77.0382136,6.33165829 81.0229281,6.33165829 C84.5881991,6.33165829 86.6854173,8.65326633 87,11.3969849 L84.2736163,11.5025126 L84.2736163,11.5025126 Z M11.2904231,3.37688442 C10.5563967,4.22110553 9.40292669,4.95979899 8.24945668,4.85427136 C8.03973486,3.5879397 8.66890032,2.32160804 9.29806578,1.58291457 C10.0320922,0.633165829 11.2904231,0 12.3390322,0 C12.4438931,1.16080402 12.0244494,2.42713568 11.2904231,3.37688442 L11.2904231,3.37688442 Z M12.3390322,5.06532663 C12.9681976,5.06532663 14.855694,5.27638191 16.1140249,7.1758794 C16.009164,7.28140704 13.9119458,8.54773869 13.9119458,11.1859296 C13.9119458,14.3517588 16.6383295,15.4070352 16.6383295,15.4070352 C16.6383295,15.5125628 16.2188858,16.8844221 15.2751376,18.361809 C14.4362504,19.6281407 13.4925022,20.8944724 12.1293103,20.8944724 C10.7661185,20.8944724 10.3466749,20.0502513 8.77376123,20.0502513 C7.20084758,20.0502513 6.67654304,20.8944724 5.41821212,20.8944724 C4.05502029,20.8944724 3.00641119,19.5226131 2.16752391,18.2562814 C0.384888443,15.6180905 -0.978303385,10.8693467 0.909192992,7.70351759 C1.74808027,6.12060302 3.42585483,5.06532663 5.10362939,5.06532663 C6.46682122,5.06532663 7.72515213,6.01507538 8.4591785,6.01507538 C9.19320487,6.01507538 10.6612576,4.95979899 12.3390322,5.06532663 L12.3390322,5.06532663 Z" transform="translate(0 .777)"/>
</svg>
