<svg xmlns="http://www.w3.org/2000/svg" width="20" height="20" viewBox="0 0 20 20">
  <path fill="#F1F1F1" fill-rule="evenodd" d="M20.9,1.99999996 L3.09999996,1.99999996 C2.49248674,1.99999996 1.99999996,2.49248674 1.99999996,3.09999996 L1.99999996,20.9 C1.99999996,21.1917382 2.11589248,21.4715275 2.3221825,21.6778175 C2.52847252,21.8841075 2.80826182,22 3.09999996,22 L12.68,22 L12.68,14.25 L10.08,14.25 L10.08,11.25 L12.68,11.25 L12.68,8.99999996 C12.5709788,7.93071519 12.9401075,6.8679139 13.6884652,6.09641117 C14.4368228,5.32490845 15.4878914,4.9235888 16.56,4.99999996 C17.338327,4.9952102 18.1162832,5.03527661 18.89,5.11999997 L18.89,7.81999998 L17.3,7.81999998 C16.04,7.81999998 15.8,8.41999999 15.8,9.28999999 L15.8,11.22 L18.8,11.22 L18.41,14.22 L15.8,14.22 L15.8,22 L20.9,22 C21.1917382,22 21.4715275,21.8841075 21.6778175,21.6778175 C21.8841075,21.4715275 22,21.1917382 22,20.9 L22,3.09999996 C22,2.80826182 21.8841075,2.52847252 21.6778175,2.3221825 C21.4715275,2.11589248 21.1917382,1.99999996 20.9,1.99999996 Z" transform="translate(-2 -2)"/>
</svg>
