<svg xmlns="http://www.w3.org/2000/svg" width="20" height="20" viewBox="0 0 20 20">
  <path fill="#F1F1F1" fill-rule="evenodd" d="M17.34,5.45999997 L17.34,5.45999997 C16.8546453,5.45999997 16.4170818,5.75237059 16.2313446,6.20077986 C16.0456074,6.64918913 16.1482743,7.16533052 16.4914719,7.50852812 C16.8346695,7.85172572 17.3508109,7.95439262 17.7992201,7.76865542 C18.2476294,7.58291822 18.54,7.14535467 18.54,6.65999998 C18.54,5.99725828 18.0027417,5.45999997 17.34,5.45999997 L17.34,5.45999997 Z M21.94,7.87999998 C21.9205523,7.05029821 21.7651565,6.22940298 21.48,5.44999997 C21.2257319,4.78313257 20.8299857,4.17927844 20.32,3.67999997 C19.8248224,3.16742586 19.2195603,2.77417645 18.55,2.52999996 C17.7726568,2.23616076 16.9508476,2.07721001 16.12,2.05999996 C15.06,1.99999996 14.72,1.99999996 12,1.99999996 C9.27999999,1.99999996 8.93999999,1.99999996 7.87999998,2.05999996 C7.04915238,2.07721001 6.22734317,2.23616076 5.44999997,2.52999996 C4.78167654,2.77664853 4.17693381,3.16956047 3.67999997,3.67999997 C3.16742586,4.17517758 2.77417645,4.78043972 2.52999996,5.44999997 C2.23616076,6.22734317 2.07721001,7.04915238 2.05999996,7.87999998 C1.99999996,8.93999999 1.99999996,9.27999999 1.99999996,12 C1.99999996,14.72 1.99999996,15.06 2.05999996,16.12 C2.07721001,16.9508476 2.23616076,17.7726568 2.52999996,18.55 C2.77417645,19.2195603 3.16742586,19.8248224 3.67999997,20.32 C4.17693381,20.8304395 4.78167654,21.2233515 5.44999997,21.47 C6.22734317,21.7638392 7.04915238,21.92279 7.87999998,21.94 C8.93999999,22 9.27999999,22 12,22 C14.72,22 15.06,22 16.12,21.94 C16.9508476,21.92279 17.7726568,21.7638392 18.55,21.47 C19.2195603,21.2258236 19.8248224,20.8325741 20.32,20.32 C20.8322421,19.8225804 21.2283368,19.2181945 21.48,18.55 C21.7651565,17.770597 21.9205523,16.9497018 21.94,16.12 C21.94,15.06 22,14.72 22,12 C22,9.27999999 22,8.93999999 21.94,7.87999998 Z M20.14,16 C20.1327194,16.6347712 20.0177534,17.2637024 19.8,17.86 C19.6403339,18.2951936 19.3838794,18.6884238 19.05,19.01 C18.7256473,19.3405064 18.3332263,19.5964332 17.9,19.76 C17.3037024,19.9777534 16.6747712,20.0927194 16.04,20.1 C15.04,20.15 14.67,20.16 12.04,20.16 C9.40999999,20.16 9.03999999,20.16 8.03999998,20.1 C7.38089073,20.1123411 6.72459484,20.010852 6.09999998,19.8 C5.68578172,19.6280776 5.3113559,19.3727872 4.99999997,19.05 C4.66808854,18.7287485 4.41484303,18.3351912 4.25999997,17.9 C4.01585616,17.2951524 3.88044352,16.6519424 3.85999997,16 C3.85999997,15 3.79999997,14.63 3.79999997,12 C3.79999997,9.36999999 3.79999997,8.99999999 3.85999997,7.99999998 C3.86448237,7.35105546 3.98295005,6.70794522 4.20999997,6.09999998 C4.38604702,5.67791113 4.65626492,5.30165835 4.99999997,4.99999997 C5.30381338,4.6561682 5.67928778,4.38309591 6.09999998,4.19999997 C6.70955107,3.98004369 7.35199729,3.86507963 7.99999998,3.85999997 C8.99999999,3.85999997 9.36999999,3.79999997 12,3.79999997 C14.63,3.79999997 15,3.79999997 16,3.85999997 C16.6347712,3.86728064 17.2637024,3.98224656 17.86,4.19999997 C18.3144297,4.36865245 18.7222936,4.64284667 19.05,4.99999997 C19.377702,5.30717835 19.6337618,5.6827327 19.8,6.09999998 C20.0222531,6.70893367 20.1372887,7.35177988 20.14,7.99999998 C20.19,8.99999999 20.2,9.36999999 20.2,12 C20.2,14.63 20.19,15 20.14,16 Z M12,6.86996082 C9.16808753,6.87552029 6.87632589,9.17473821 6.87999988,12.0066537 C6.88368272,14.8385691 9.18140958,17.1318257 12.0133268,17.1299903 C14.8452441,17.1281527 17.1400099,14.8319178 17.1400099,12 C17.1426728,10.6368871 16.601676,9.32897992 15.6368697,8.36605068 C14.6720634,7.40312144 13.3631051,6.86467269 12,6.86996082 Z M12,15.33 C10.1608918,15.33 8.66999999,13.8391082 8.66999999,12 C8.66999999,10.1608918 10.1608918,8.66999999 12,8.66999999 C13.8391082,8.66999999 15.33,10.1608918 15.33,12 C15.33,12.8831709 14.9791617,13.7301694 14.3546656,14.3546656 C13.7301694,14.9791617 12.8831709,15.33 12,15.33 Z" transform="translate(-2 -2)"/>
</svg>
