<svg xmlns="http://www.w3.org/2000/svg" width="88" height="28" viewBox="0 0 88 28">
  <path fill="#FFF" fill-rule="evenodd" d="M80.5722728,22.8450476 C79.7415621,22.8450476 79.0701931,22.6767946 78.3268204,22.284646 C78.2557981,22.2488501 78.2265002,22.1632861 78.2608169,22.0918838 L78.9735213,20.567671 C78.9914644,20.530023 79.0239036,20.5011349 79.0635261,20.487519 C79.104364,20.4755692 79.1482562,20.4795984 79.1861993,20.4987801 C79.5848871,20.7120771 79.9755745,20.8193881 80.3462608,20.8193881 C80.8036184,20.8193881 81.1396362,20.6729947 81.4803209,19.9350664 L78.4741615,12.9121618 L76.5113908,12.9121618 L76.5113908,19.9357288 C76.5106574,20.0196133 76.4418125,20.087127 76.3573826,20.0867591 L74.2552711,20.0867591 C74.2147791,20.0869351 74.1758752,20.0711219 74.1471181,20.0427981 C74.1183609,20.0144744 74.1021061,19.9759604 74.1019296,19.9357288 L74.1019296,12.9121618 L73.0925428,12.9121618 C73.0520505,12.9125147 73.0130757,12.8968703 72.9841932,12.8686705 C72.9553107,12.8404708 72.9388867,12.8020258 72.9385346,12.761794 L72.9385346,10.9938131 C72.9396317,10.9101882 73.0083701,10.8430746 73.0925428,10.8434453 L74.1019296,10.8434453 L74.1019296,10.4095647 C74.1019296,8.3958286 75.1286508,7.33066818 77.0700871,7.33066818 C77.8674627,7.33066818 78.4008243,7.45520186 78.817513,7.57576106 C78.8813838,7.59449865 78.925298,7.6526743 78.9255188,7.71884231 L78.9255188,9.44442868 C78.9256259,9.49326751 78.9023624,9.53924932 78.8628488,9.56829995 C78.8218778,9.59573399 78.770449,9.60282414 78.7235081,9.58750993 C78.3294872,9.45966419 77.9774685,9.37421289 77.5394453,9.37421289 C76.8040729,9.37421289 76.4767223,9.74582669 76.4767223,10.5784801 L76.4767223,10.8619929 L80.068246,10.8619929 C80.1315827,10.8619929 80.1895858,10.8997505 80.2109203,10.9580428 L82.6670505,17.1992999 L84.9085027,10.9626797 C84.9302191,10.9016334 84.9886831,10.8611318 85.0538438,10.8619929 L87.2426265,10.8619929 C87.2939626,10.8619929 87.339965,10.8858398 87.3692999,10.926247 C87.3972502,10.9672106 87.4032281,11.0191807 87.3853007,11.0653538 L83.7384407,20.2457382 C82.9817339,22.14024 82.1236884,22.8450476 80.5722728,22.8450476 L80.5722728,22.8450476 Z M70.7644193,9.7213174 C69.9323752,9.7213174 69.2556726,9.06420351 69.2556726,8.25274735 C69.2556726,7.44062877 69.9323752,6.7841773 70.7644193,6.7841773 C71.5964634,6.7841773 72.2718326,7.44062877 72.2718326,8.25274735 C72.2718326,9.06420351 71.5964634,9.7213174 70.7644193,9.7213174 Z M66.1048389,12.9121618 L66.1048389,17.1456445 C66.1048389,17.813357 66.4061882,18.1114429 67.080224,18.1114429 C67.5175805,18.1114429 67.9089346,18.0200299 68.3136227,17.8219683 C68.3614768,17.7985502 68.4180562,17.8010486 68.4636306,17.8285925 C68.5087659,17.8555749 68.5363497,17.9041017 68.5363012,17.9564382 L68.5363012,19.633006 C68.5357669,19.686752 68.5058929,19.7359681 68.458297,19.7615142 C67.8689324,20.0880839 67.2435659,20.2397765 66.489526,20.2397765 C64.6354276,20.2397765 63.6953778,19.3064363 63.6953778,17.4669149 L63.6953778,12.9121618 L62.6839908,12.9121618 C62.6436757,12.9123378 62.6049413,12.8965944 62.5763092,12.8683949 C62.547677,12.8401953 62.5314925,12.8018498 62.5313161,12.761794 L62.5313161,11.0030869 C62.5313161,10.9196229 62.5999864,10.8527191 62.6839908,10.8527191 L63.6953778,10.8527191 L63.6953778,8.54752122 C63.6953778,8.46538198 63.7640481,8.39847825 63.849386,8.39847825 L65.9508307,8.39847825 C66.0361686,8.39847825 66.1048389,8.46538198 66.1048389,8.54752122 L66.1048389,10.8527191 L68.4176282,10.8527191 C68.5022994,10.8527191 68.5709697,10.9196229 68.5709697,11.0030869 L68.5709697,12.761794 C68.5707939,12.8019653 68.5545178,12.840412 68.5257411,12.8686306 C68.4969644,12.8968492 68.4580585,12.9125145 68.4176282,12.9121618 L66.1048389,12.9121618 L66.1048389,12.9121618 Z M57.2983719,20.2901199 C54.4848894,20.2901199 52.2807725,18.1882828 52.2807725,15.5041846 C52.2807725,12.7902777 54.5002235,10.6652562 57.3330404,10.6652562 C60.1565235,10.6652562 62.3679741,12.7757046 62.3679741,15.4697391 C62.3679741,18.1730473 60.141856,20.2901199 57.2983719,20.2901199 L57.2983719,20.2901199 Z M57.2983719,12.7598067 C55.7862917,12.7598067 54.6902336,13.8991574 54.6902336,15.4697391 C54.6902336,17.0330342 55.8262938,18.2134545 57.3330404,18.2134545 C58.8544544,18.2134545 59.958513,17.0741039 59.958513,15.5041846 C59.958513,13.9389022 58.815119,12.7598067 57.2983719,12.7598067 Z M47.1978362,20.2735596 C46.0144402,20.2735596 45.0430553,19.8449782 44.2423462,18.969268 L44.2423462,22.643674 C44.2419968,22.6837872 44.2255299,22.7220987 44.1966078,22.7500884 C44.1676856,22.7780781 44.1287061,22.7934253 44.088338,22.7927404 L41.9868932,22.7927404 C41.9465251,22.7934253 41.9075456,22.7780781 41.8786235,22.7500884 C41.8497013,22.7220987 41.8332345,22.6837872 41.8328851,22.643674 L41.8328851,11.0030869 C41.8328851,10.9196229 41.9015554,10.8527191 41.9868932,10.8527191 L44.088338,10.8527191 C44.1736759,10.8527191 44.2423462,10.9196229 44.2423462,11.0030869 L44.2423462,12.0496998 C45.0430553,11.1196717 46.0144402,10.6652562 47.1978362,10.6652562 C49.3979529,10.6652562 51.6254044,12.3146651 51.6254044,15.4697391 C51.6254044,18.6234883 49.3979529,20.2735596 47.1978362,20.2735596 L47.1978362,20.2735596 Z M46.7118105,12.7432464 C45.2737342,12.7432464 44.1896767,13.9143929 44.1896767,15.4697391 C44.1896767,17.0244229 45.2737342,18.1962318 46.7118105,18.1962318 C48.1652209,18.1962318 49.1806081,17.0747663 49.1806081,15.4697391 C49.1806081,13.8892212 48.1418863,12.7432464 46.7118105,12.7432464 Z M36.991295,12.9207731 C39.8527801,13.5977594 41.0188419,14.6509964 41.0188419,16.5521223 C41.0188419,18.8016775 39.2527483,20.2564378 36.5219368,20.2564378 C34.6164098,20.2660286 32.7741766,19.5773652 31.3476624,18.3220903 C31.3175554,18.2969021 31.2989005,18.2607484 31.2958914,18.2217573 C31.2928823,18.1827661 31.3057716,18.1442093 31.3316615,18.114755 L32.617063,16.6249877 C32.6436959,16.5941205 32.6815976,16.5750532 32.7224019,16.5719947 C32.7632764,16.5691591 32.8037306,16.5816901 32.8357413,16.6071026 C34.0864743,17.6623268 35.2038669,18.1114429 36.5739395,18.1114429 C37.808005,18.1114429 38.5740456,17.5927734 38.5740456,16.7554831 C38.5740456,16.0003321 38.1953588,15.5790373 35.9479063,15.0742784 C33.3097664,14.4522724 31.7823521,13.6474404 31.7823521,11.3733759 C31.7823521,9.25299127 33.5531127,7.77183537 36.0872471,7.77183537 C37.8106718,7.77183537 39.2867501,8.26930768 40.5954861,9.29339848 C40.6594895,9.34307947 40.6721569,9.43250525 40.6254877,9.49675933 L39.4794269,11.0713155 C39.4549392,11.1044197 39.4182731,11.1265636 39.3774215,11.1329199 C39.336484,11.139025 39.2947783,11.1287847 39.2614154,11.1044361 C38.161357,10.3055658 37.1113014,9.9173917 36.0525785,9.9173917 C34.9605206,9.9173917 34.2264817,10.4281123 34.2264817,11.1885626 C34.2264817,11.9920698 34.6438372,12.3756071 36.991295,12.9207731 L36.991295,12.9207731 Z M27.160107,14.1548489 C27.1501064,14.3012422 27.1407726,14.4469731 27.1261052,14.5913792 C27.117438,14.6774929 27.1047707,14.7622818 27.0947702,14.8470707 C27.0787693,14.9775661 27.0634352,15.1073991 27.0441008,15.2359072 C27.0301001,15.3259954 27.0134325,15.4154212 26.9974317,15.504847 C26.9760972,15.6273934 26.9554295,15.7499399 26.9307615,15.8711615 C26.9120938,15.9625745 26.8907594,16.0526627 26.8700916,16.1434133 C26.8434235,16.2613229 26.8167554,16.37857 26.7867538,16.4951547 C26.7634193,16.5865677 26.7374179,16.6766559 26.7120832,16.7674065 C26.6800815,16.8813416 26.6480798,16.9952767 26.6127446,17.1085493 C26.5502217,17.3104614 26.4826415,17.5107933 26.4100672,17.7093581 C26.3050309,17.9952259 26.190518,18.2775679 26.0667157,18.5559222 C25.9803868,18.7467502 25.8905895,18.9360106 25.797368,19.1236103 C25.7440319,19.228934 25.6886956,19.3322704 25.6333593,19.4356069 C25.589357,19.5164213 25.5460214,19.5965733 25.5006856,19.6767253 C25.4417464,19.7797003 25.3815163,19.8819407 25.3200094,19.9834226 C25.2733403,20.0602625 25.2273378,20.1371025 25.1793353,20.21328 C25.1146652,20.315954 25.0473283,20.4166408 24.9793247,20.5173276 C24.9306554,20.5895307 24.8833196,20.6623961 24.8333169,20.7332743 C24.7613131,20.8366108 24.6859758,20.9372976 24.6106384,21.0386468 C24.5613025,21.1048881 24.5139666,21.1711295 24.4632973,21.2367084 C24.3806262,21.3440193 24.2946217,21.4480182 24.2079504,21.5526795 C24.161948,21.6089846 24.1172789,21.6659521 24.0706098,21.7215948 C23.9646042,21.8461285 23.8545983,21.9673501 23.7445925,22.0885717 C23.7139242,22.12103 23.6859227,22.1554755 23.6552544,22.1879337 C23.5119135,22.3409512 23.3659058,22.4906565 23.2152311,22.6370499 C23.188563,22.6635464 23.1592281,22.6887181 23.1318934,22.7152146 C23.0092608,22.8335206 22.884342,22.9494645 22.7572068,23.0629815 C22.703204,23.1113377 22.647201,23.1563818 22.5931981,23.2034131 C22.4891926,23.2928389 22.3858538,23.3822647 22.2791815,23.4683784 C22.2145114,23.5207091 22.1485079,23.57039 22.0831711,23.6213959 C21.9831658,23.6988982 21.8838272,23.7764005 21.7818218,23.8519157 C21.7104846,23.9042463 21.6378141,23.9539273 21.5658103,24.0049331 L21.3397983,24.161925 C21.3611328,24.1466895 21.3844674,24.1341037 21.4064685,24.1195306 C21.3811338,24.1367533 21.3551325,24.1513264 21.3297978,24.1685492 C21.3084633,24.1831222 21.2877956,24.1983578 21.2664611,24.2122684 C21.1897904,24.2632742 21.1124529,24.3122928 21.0351155,24.3613114 C20.9035082,24.445629 20.770368,24.527561 20.635761,24.6070667 L20.5890918,24.6335632 C20.5990924,24.6282639 20.6097596,24.6229646 20.6190934,24.6170029 L20.4797527,24.6971549 C20.3810808,24.7541224 20.2824089,24.8097651 20.1824036,24.864083 L20.0510633,24.932974 C19.9743926,24.9733812 19.8963884,25.013126 19.8183843,25.0522084 L19.7777155,25.0720808 C19.7177123,25.1018893 19.6590425,25.1323604 19.5983726,25.1615065 C19.517035,25.1999265 19.4356973,25.2383465 19.3530263,25.276104 L19.2863561,25.3052502 C19.2130189,25.3383709 19.1396816,25.3708291 19.0656777,25.4026249 L19.033676,25.4165356 C18.9690059,25.444357 18.9030024,25.4708535 18.8376656,25.4980124 C18.7237934,25.5448317 18.609103,25.5896619 18.4936474,25.6324823 C18.4156433,25.6616285 18.3383058,25.6901123 18.2603017,25.7179336 L18.1596297,25.7543663 C18.0736251,25.7841749 17.9862872,25.8126587 17.8989492,25.8404801 C17.8276121,25.8636645 17.756275,25.886849 17.6842711,25.9087086 L17.6556029,25.91732 C17.5782655,25.9411669 17.5009281,25.9636889 17.4229239,25.9855485 L17.2002455,26.0478154 C17.1049071,26.0729871 17.0102354,26.0988212 16.9142303,26.1226681 L16.8655611,26.1332667 L16.7455547,26.1624129 C16.7668892,26.157776 16.7868902,26.1511518 16.8082247,26.146515 L16.6695507,26.1776484 C16.6942186,26.1716867 16.72022,26.1683746 16.7455547,26.1624129 C16.6868849,26.1763235 16.6275484,26.1869222 16.5688787,26.2001704 L16.5602115,26.2021577 C16.4648731,26.2226925 16.3702015,26.2445521 16.2741964,26.2630997 C16.1748578,26.2823097 16.0748525,26.29887 15.9748472,26.3154303 C15.9161774,26.3253665 15.8581743,26.3379524 15.7995045,26.3472262 C15.8268393,26.3425893 15.8535074,26.3359651 15.8808422,26.3313282 L15.7361678,26.3551751 C15.7575023,26.351863 15.7788368,26.3505382 15.7995045,26.3472262 L15.7014993,26.3611368 L15.6228285,26.3743851 C15.4901548,26.3935951 15.3561477,26.4081682 15.2221406,26.4240661 C15.1354693,26.4340023 15.048798,26.4465881 14.9607934,26.4545371 L14.9407923,26.4571867 L14.928125,26.4571867 C14.8921231,26.4604988 14.8547878,26.4618236 14.8187858,26.4651357 C14.7361148,26.4724222 14.6534437,26.4770591 14.5707727,26.4830209 C14.2900911,26.5028933 14.0074095,26.5154791 13.722061,26.5181288 C13.6967263,26.5181288 13.6727251,26.5214408 13.6480571,26.5214408 L13.5460517,26.5214408 C13.5220504,26.5214408 13.4993825,26.5187912 13.4753813,26.5181288 C13.1835002,26.5150115 12.8917878,26.5028613 12.6006682,26.481696 C12.5213307,26.4757343 12.4413264,26.4710974 12.3619889,26.4644733 C12.3299872,26.4611612 12.2973188,26.4604988 12.2646504,26.4571867 L12.2526498,26.4571867 C12.0151748,26.4331639 11.7784067,26.4026815 11.5426121,26.3657737 C11.5766139,26.371073 11.6112824,26.3737227 11.6452842,26.3783596 C11.5606131,26.3657737 11.4739418,26.3584872 11.3899373,26.3452389 L11.269931,26.3240417 C11.3019327,26.329341 11.3332677,26.3379524 11.3652694,26.3432517 C11.307933,26.3339779 11.25193,26.3207296 11.1945937,26.3107934 L11.1745926,26.3074814 C11.1392574,26.3015196 11.1052556,26.2929083 11.0705871,26.2869466 C10.8448191,26.2469446 10.6200729,26.2014453 10.3965513,26.1504894 L10.4605547,26.1630753 L10.3552158,26.1392284 L10.3965513,26.1504894 C10.2998795,26.1279674 10.2058746,26.0994836 10.1098695,26.0743119 L10.1252036,26.0782864 C10.1152031,26.0762992 10.1058693,26.0729871 10.0958687,26.0703374 L10.1098695,26.0743119 C9.91585917,26.0246309 9.72184889,25.9749499 9.53117211,25.91732 L9.50717083,25.9106959 C9.48116946,25.9027469 9.45583478,25.8934731 9.4298334,25.8848617 L9.41783276,25.8808873 C9.31049374,25.8471042 9.20515482,25.8080218 9.0984825,25.7715891 L9.23715652,25.8186204 C9.16381929,25.7941111 9.09114877,25.768277 9.01847825,25.7424429 L9.0984825,25.7715891 C8.9351405,25.7159464 8.7717985,25.6603037 8.61179002,25.5986992 L8.53111907,25.5675658 C8.51978514,25.5629289 8.50911791,25.5576296 8.49778397,25.5536551 C8.38809834,25.5097557 8.27897281,25.4644873 8.17043328,25.4178604 C8.2417704,25.4483314 8.31377422,25.4768152 8.38511133,25.5059614 C8.27910571,25.4629045 8.17376679,25.417198 8.06909457,25.3721539 C8.10309638,25.386727 8.13643148,25.4032874 8.17043328,25.4178604 C8.05842734,25.3701667 7.945088,25.3237978 7.83441546,25.272792 L7.81041419,25.2628558 C7.79574674,25.2562316 7.7804126,25.2502699 7.76574515,25.2429834 C7.71307569,25.2191365 7.66307304,25.1899903 7.61107028,25.165481 C7.50439796,25.1138128 7.39772564,25.0634694 7.29238672,25.0098139 C7.38239149,25.0555204 7.47439637,25.0979149 7.56573455,25.1422966 C7.43494658,25.0789241 7.30514659,25.0135583 7.17638057,24.9462222 C7.21571598,24.9667571 7.2530513,24.9892791 7.29238672,25.0098139 C7.20371535,24.9641074 7.11571068,24.9190633 7.02837272,24.872032 L6.99637102,24.8554716 C6.96370262,24.8382489 6.93170092,24.8190389 6.89969923,24.8011538 C6.857697,24.7786317 6.81836158,24.7527976 6.77702605,24.7289507 L6.74169085,24.7090783 L6.7596918,24.7190145 C6.61501746,24.6368753 6.47234323,24.5534112 6.3316691,24.4666351 C6.37367133,24.4924692 6.41367345,24.5216154 6.45634238,24.5474495 C6.38767207,24.5063799 6.32100187,24.4626606 6.25366497,24.4209286 L6.24766465,24.4169541 L6.14499254,24.3527 C6.09298978,24.3195794 6.04365383,24.2831466 5.99231777,24.2493636 C5.88231194,24.1771605 5.7696393,24.108932 5.66163357,24.0334169 C5.74230452,24.089722 5.82830908,24.139403 5.91031343,24.1937209 C5.76630579,24.0983334 5.62096475,24.0049331 5.48095732,23.9035839 L5.51029221,23.9254435 C5.50029168,23.9188194 5.49095785,23.9108704 5.48095732,23.9035839 C5.35028373,23.8081964 5.22294364,23.7088344 5.09560355,23.6094724 L5.08960324,23.6048355 L5.08826983,23.6041731 C5.03226686,23.5597914 4.97493049,23.517397 4.91892752,23.4723529 L4.91826082,23.4716905 L4.89625965,23.4531429 C4.74158478,23.3272844 4.58824332,23.1987762 4.43956877,23.0662936 L4.42756813,23.0563574 L4.4182343,23.047746 C4.36356473,22.9993899 4.31289538,22.9483841 4.25955922,22.8987031 C4.1542203,22.8019907 4.04888138,22.7052784 3.94687597,22.605254 L3.93420863,22.5933306 L3.90954066,22.5701461 L3.93420863,22.5933306 C3.8922064,22.552261 3.85220428,22.5092041 3.81086876,22.4674721 C3.84420386,22.5012551 3.87553885,22.5370255 3.90954066,22.5701461 C3.87553885,22.536363 3.84353716,22.5005927 3.80953535,22.4661473 L3.75486579,22.4091797 C3.66219421,22.3137922 3.56885592,22.2197295 3.47885115,22.1216924 L3.47751775,22.1197051 C3.42618169,22.0640624 3.37617904,22.0070949 3.32617639,21.9507898 L3.28750767,21.9064081 C3.15174479,21.7524285 3.0192639,21.5956225 2.89015327,21.4360947 C2.87681923,21.4201968 2.86415189,21.4029741 2.85148455,21.3864137 C2.72606773,21.2302142 2.60425184,21.0711937 2.48613184,20.9094762 C2.4714644,20.8889414 2.45813036,20.8677442 2.44346291,20.8478718 C2.36853631,20.7430516 2.29497076,20.6372776 2.22278454,20.5305759 C2.18611593,20.476258 2.14811392,20.4219401 2.11211201,20.3662974 C2.09544446,20.3411257 2.08077701,20.3152916 2.06477616,20.2901199 C1.99690119,20.184714 1.93066757,20.0782736 1.86609896,19.9708367 C1.85809854,19.9562637 1.84876471,19.942353 1.84009758,19.9284423 C1.81542961,19.8880351 1.79009493,19.8482903 1.76609366,19.8072207 C1.7480927,19.7767497 1.73209185,19.7449538 1.7147576,19.7138204 C1.65230391,19.6038305 1.5914058,19.4929758 1.53208125,19.381289 C1.50341306,19.3289584 1.47341147,19.2779525 1.44607669,19.2249595 C1.42874243,19.1918388 1.41340829,19.1580558 1.39674074,19.1249351 C1.33765025,19.0076397 1.28074861,18.8892683 1.22606502,18.7698816 C1.20406385,18.7241751 1.18072928,18.6784686 1.15939482,18.6320997 L1.12472631,18.5519477 C1.06272302,18.4141657 1.00471995,18.2743966 0.948050275,18.133965 L0.901381134,18.0220171 L0.882046775,17.9696865 C0.816274551,17.8003796 0.754256281,17.6296565 0.696036911,17.4576411 L0.673369042,17.3940494 L0.666702022,17.3735146 C0.501860268,16.8814481 0.366943062,16.3799799 0.262680597,15.8718239 L0.257346981,15.8453274 C0.246679748,15.7929967 0.239346026,15.7400037 0.229345496,15.6883355 C0.199979043,15.5382309 0.173306729,15.3876184 0.149341253,15.2365697 L0.139340723,15.1782773 C0.12867349,15.104087 0.12200647,15.0285719 0.112672642,14.9537192 C0.0940716796,14.8179941 0.0778461471,14.6819581 0.0640033941,14.5456727 C0.0626699901,14.5324244 0.060003182,14.5191762 0.05933648,14.5052655 C0.0573363739,14.4873803 0.0580030759,14.4688328 0.0566696719,14.4502852 C0.0199384464,14.0598502 0.00102916982,13.6679622 0,13.2758266 C0,13.1055864 0.00666702022,12.9360086 0.0133340404,12.7670933 C0.0106672324,12.8439332 0.00400021213,12.9201107 0.00266680809,12.9976131 C0.00400021213,12.9201107 0.0106672324,12.8439332 0.0133340404,12.7670933 C0.0173342526,12.6710434 0.0213344647,12.5749934 0.0266680809,12.4789435 C0.030001591,12.4292625 0.030001591,12.3789191 0.0340018031,12.3292381 C0.030001591,12.3789191 0.030001591,12.4292625 0.0266680809,12.4789435 C0.0346685051,12.3510978 0.0453357375,12.2245769 0.0566696719,12.0980559 C0.0493359496,12.1748959 0.0393354193,12.2517358 0.0340018031,12.3292381 C0.0393354193,12.2510734 0.0500026517,12.1742335 0.0566696719,12.0960687 C0.0653367982,12.0006812 0.0740039245,11.9059561 0.0846711568,11.811231 C0.0993386013,11.6853725 0.116006152,11.559514 0.134007106,11.4343179 C0.147341147,11.3402552 0.160675187,11.246855 0.176009334,11.1541171 L0.176009334,11.1534547 C0.196677097,11.0295835 0.220011667,10.9063746 0.24401294,10.7838282 L0.24401294,10.7825033 C0.262013895,10.6904279 0.280014849,10.5983525 0.30001591,10.5069394 L0.30001591,10.506277 C0.327157721,10.3844305 0.356051094,10.2629757 0.386687173,10.1419498 C0.40868834,10.0518616 0.431356208,9.96111098 0.456024183,9.87168519 L0.456024183,9.87036037 C0.488692582,9.75112599 0.523361087,9.63387886 0.559362997,9.51663172 L0.560029699,9.51398207 C0.586697779,9.4252187 0.61336586,9.33579292 0.642034047,9.24835438 L0.642700749,9.24636714 C0.680702765,9.13044483 0.721371588,9.01584735 0.762707113,8.90124987 L0.764040517,8.8979378 C0.795375512,8.81116167 0.826043805,8.72438554 0.859378906,8.63827183 L0.860045608,8.63628459 C0.90338124,8.52301193 0.949383679,8.41172651 0.995386119,8.3004411 L0.997386225,8.29580421 C1.03272143,8.21101532 1.06805664,8.12556402 1.10472525,8.04143754 L1.10605865,8.0394503 C1.15599502,7.9284109 1.20733513,7.81799997 1.26006682,7.7082437 C1.29940224,7.62544205 1.33807096,7.54197799 1.37940648,7.46050117 L1.38073989,7.45785152 C1.43407605,7.35120299 1.49007902,7.24654171 1.54674869,7.14188042 L1.5500822,7.13525629 C1.59341783,7.05510429 1.63608676,6.97362747 1.6814225,6.89413789 L1.6827559,6.89148823 C1.74075898,6.78881419 1.80209557,6.68746497 1.86276545,6.58611575 L1.86743236,6.57882921 C1.91476821,6.50066445 1.96143735,6.42183728 2.0101066,6.34433494 L2.0121067,6.34168528 C2.07477669,6.2423233 2.14011349,6.14494857 2.20545029,6.04757383 L2.21078391,6.03896245 C2.26211996,5.96344735 2.31212261,5.88726983 2.36479207,5.81241714 L2.36679218,5.80910508 C2.43346238,5.71371758 2.50346609,5.62031732 2.5728031,5.52625464 L2.58013683,5.51698086 C2.63480639,5.44345299 2.68814255,5.36992513 2.74414552,5.29772209 L2.74681233,5.29441002 C2.81748275,5.202997 2.89148667,5.11357122 2.96549059,5.02348303 L2.97349102,5.01354683 C3.03149409,4.94266862 3.08883047,4.87179041 3.14816695,4.80223702 C3.14884951,4.80098352 3.14975274,4.79986175 3.15083376,4.79892496 C3.22550438,4.71148641 3.30350852,4.6253727 3.38084595,4.5399214 L3.39084648,4.52932279 C3.45218307,4.46109423 3.51218625,4.39286567 3.57485624,4.32596193 L3.57818975,4.32331228 C3.65686059,4.23918581 3.73886494,4.15770898 3.81953588,4.07623216 L3.83086982,4.06497114 C3.89553991,4.00005464 3.95887661,3.93447574 4.02488011,3.87088407 C4.02596113,3.86994728 4.02686435,3.86882551 4.02754692,3.867572 L4.05154819,3.84372513 L4.02888032,3.86690959 C4.10021744,3.79801862 4.17422136,3.7317773 4.24689188,3.66421115 C4.1868887,3.71985386 4.12488541,3.77350933 4.06554893,3.82981445 C4.13555264,3.76291072 4.20888987,3.69865664 4.28022698,3.63307773 L4.29289432,3.62181671 C4.36089793,3.55954987 4.42756813,3.49662062 4.49623844,3.43634102 L4.49957195,3.43369136 L4.53490715,3.40123312 L4.49957195,3.43369136 C4.57357587,3.36811246 4.65091331,3.30584562 4.72691734,3.24159154 C4.66291394,3.29524701 4.59757714,3.34625282 4.53490715,3.40123312 C4.60957778,3.33631662 4.68691522,3.2747122 4.76225254,3.21178294 C4.76700651,3.20764708 4.7718984,3.20367038 4.77691999,3.19985951 C4.8469237,3.14156714 4.91626071,3.08194996 4.98759783,3.02498242 L4.99093134,3.02233277 L5.02559984,2.993849 L4.99159804,3.02167036 C5.06893547,2.96006593 5.14827301,2.90111115 5.22694385,2.84149397 C5.16027365,2.89249978 5.09160334,2.94151836 5.02559984,2.993849 C5.10360398,2.93158216 5.18494163,2.87262739 5.26494587,2.81234779 L5.28028001,2.80042435 C5.35361724,2.74544405 5.42495435,2.68980135 5.49895828,2.63614588 L5.50162509,2.63415864 L5.53562689,2.60898694 L5.50362519,2.63283381 C5.58429614,2.57454145 5.66630049,2.51956116 5.74763813,2.46325603 C5.67763442,2.51227461 5.6049639,2.55864353 5.53562689,2.60898694 C5.61763124,2.54936975 5.7029691,2.49372704 5.78697355,2.43675951 L5.8043078,2.42483607 C5.87897843,2.37316784 5.95298236,2.3208372 6.02898639,2.27115621 L6.03165319,2.26916897 L6.06432159,2.24730933 L6.0349867,2.26718173 C6.11832446,2.21286385 6.20432902,2.16185803 6.28833347,2.10886497 C6.21432955,2.1552339 6.13765882,2.19961558 6.06432159,2.24730933 C6.15099286,2.19100421 6.23966422,2.13867357 6.32766889,2.08435569 L6.34700325,2.07309466 C6.42367398,2.02540091 6.49967801,1.97638234 6.57768215,1.93067583 L6.58034896,1.929351 C6.59054941,1.922562 6.6010017,1.9161542 6.61168395,1.91014102 L6.58501587,1.92670135 C6.67168713,1.87569553 6.7603585,1.82800178 6.84836317,1.7789832 C6.76969233,1.82270248 6.68902139,1.86443451 6.61168395,1.91014102 C6.70168873,1.85714796 6.79502701,1.80812938 6.88636519,1.75778598 L6.90769965,1.74586254 C6.98637049,1.70280569 7.06370792,1.65776159 7.14304546,1.61536715 C7.14404308,1.6151864 7.14496817,1.61472683 7.14571227,1.61404232 L7.17571386,1.5981444 L7.15171259,1.61139267 C7.24238407,1.56369892 7.33572235,1.51931723 7.42706053,1.47361072 C7.34372277,1.51534275 7.25838491,1.55442513 7.17571386,1.5981444 C7.27038555,1.54846341 7.36705734,1.50341932 7.46239573,1.45572557 C7.47036334,1.4523724 7.47815185,1.44861375 7.4857303,1.44446454 C7.56573455,1.40538216 7.64440539,1.36431254 7.72574303,1.32655499 L7.72774314,1.32523017 L7.75641132,1.31131949 L7.73574356,1.3219181 C7.83108195,1.27753642 7.92842045,1.2364668 8.02509224,1.19407235 C7.93575417,1.23381715 7.84508269,1.27024987 7.75641132,1.31131949 C7.85508322,1.26561298 7.95575523,1.22454336 8.05576053,1.18082409 L8.08109521,1.16956307 C8.16176615,1.13445517 8.2417704,1.09736003 8.32377475,1.06423937 L8.32577485,1.06291454 C8.33478203,1.05944249 8.34367588,1.05568692 8.35244293,1.05165352 L8.33510868,1.05960248 C8.43644739,1.01787044 8.5397862,0.980775306 8.64245831,0.941692927 C8.54578652,0.978125653 8.44844802,1.01323355 8.35244293,1.05165352 C8.45511504,1.00992149 8.56045396,0.972826347 8.66445948,0.933081556 L8.69312767,0.922482945 C8.77446531,0.891349524 8.85446956,0.858891278 8.93714061,0.829082684 L8.93847401,0.829082684 C8.94676616,0.825594128 8.9552206,0.822499371 8.96380869,0.8198089 L8.94914124,0.825108205 C9.05914708,0.786025827 9.17181972,0.751580341 9.28315896,0.715147615 C9.17648663,0.750255514 9.06914761,0.782713761 8.96380869,0.8198089 C9.07114771,0.782051347 9.18048684,0.748930688 9.28849257,0.713160375 L9.32182767,0.702561764 C9.40316532,0.676065236 9.48250286,0.647581469 9.56384051,0.623072181 L9.56517391,0.623072181 L9.58850848,0.615785636 L9.57717455,0.619760115 C9.6931807,0.584652216 9.81118696,0.554181209 9.92785981,0.522385375 L9.90985886,0.527684681 L9.956528,0.514436417 L9.99719682,0.503175393 C10.0665338,0.484627823 10.1345374,0.464093014 10.2045411,0.446207858 L10.2052079,0.446207858 L10.2258756,0.440908553 L10.2192086,0.442895792 C10.339215,0.413087198 10.4612214,0.387915497 10.5825612,0.361418969 L10.5398923,0.370692754 C10.6012289,0.356782077 10.6618987,0.342208987 10.723902,0.329623136 L10.7825718,0.316374872 C10.8079065,0.311075567 10.8325745,0.304451435 10.8572424,0.299814542 L10.8579091,0.299152129 L10.8759101,0.296502476 L10.8732433,0.29716489 C10.9985833,0.271993188 11.1259233,0.252120792 11.2532634,0.23092357 L11.1852598,0.242184594 C11.2985992,0.222974612 11.4106051,0.200452563 11.5239445,0.183892233 L11.5246112,0.18322982 L11.5359451,0.181904994 L11.5386119,0.181904994 C11.6399506,0.16666949 11.7432894,0.156733292 11.8452948,0.143485029 C11.7766245,0.1520964 11.7066208,0.160045358 11.6379505,0.169319143 C11.7392892,0.155408466 11.8419613,0.143485029 11.9439667,0.131561591 L11.8452948,0.143485029 C11.9633011,0.128911938 12.0806406,0.111689195 12.1999803,0.0997657578 L12.200647,0.0997657578 L12.2146477,0.0984409314 L12.2153144,0.0984409314 C12.3159865,0.0885047335 12.4179919,0.0832054279 12.5193306,0.0759188828 L12.419992,0.0832054279 C12.5039964,0.076581296 12.5873342,0.069957164 12.6713386,0.0646578585 L12.5193306,0.0759188828 C12.641337,0.0666450981 12.7626768,0.0547216606 12.88535,0.0487599418 L12.8860167,0.0487599418 L12.9013508,0.0480975286 C13.0026895,0.0427982231 13.1053616,0.0427982231 13.2067004,0.0401485703 L13.1500307,0.0414733967 C13.2987052,0.0368365043 13.4467131,0.0308747856 13.596721,0.0308747856 C21.1064526,0.0308747856 27.1934421,5.96013528 27.1934421,13.2758266 C27.1934421,13.497735 27.1867751,13.7183186 27.1761078,13.9375774 C27.1721076,14.0104428 27.1647739,14.0826459 27.160107,14.1548489 Z M5.70830271,17.5126214 C5.81164153,17.9564382 6.26699901,18.2346518 6.72302319,18.1326401 C11.4552741,17.0794032 15.4741539,17.5086469 18.6663232,19.4097728 C19.0663444,19.6469167 19.5883721,19.5256951 19.8323851,19.1342089 C19.9493286,18.9474902 19.9854066,18.7217557 19.9324323,18.5082282 C19.879458,18.2947007 19.7419232,18.1114856 19.5510368,18.0001575 C15.9668467,15.8658622 11.5246112,15.3697147 6.34500314,16.5236385 C6.1275452,16.5690723 5.93759211,16.6994402 5.81785315,16.88543 C5.6981142,17.0714198 5.65863882,17.2974218 5.70830271,17.5126214 L5.70830271,17.5126214 Z M5.16560727,13.6368418 C5.33628298,14.1820078 5.92831438,14.4893676 6.48967748,14.3244267 C10.8125734,13.0466316 16.3842022,13.6798986 20.0377293,15.8685118 C20.5357557,16.1659354 21.1891237,16.0142427 21.4958066,15.5293563 C21.6425866,15.2959277 21.6884093,15.0135474 21.622906,14.7461127 C21.5574026,14.478678 21.3861099,14.2487944 21.1477881,14.10848 C16.9502322,11.5972716 10.8119067,10.8891519 5.87297811,12.3491105 C5.60637976,12.4252752 5.38155435,12.6042905 5.24865906,12.8462194 C5.11576376,13.0881483 5.08585573,13.3728617 5.16560727,13.6368418 L5.16560727,13.6368418 Z M22.9372164,9.64182782 C17.8916155,6.7238977 9.90785875,6.44965863 5.10493738,7.87053494 C4.78495621,7.96155935 4.5150975,8.17631015 4.35581399,8.46667968 C4.19653047,8.7570492 4.16113586,9.09876692 4.25755911,9.4152825 C4.46090323,10.0704092 5.17094088,10.4393733 5.84364322,10.2406493 C10.0271984,9.00392391 17.2562484,9.23775577 21.6398142,11.7728111 C22.2427119,12.122462 23.0162943,11.9297957 23.3819066,11.3389304 C23.5538545,11.05635 23.6036088,10.716735 23.5198754,10.3971772 C23.4361419,10.0776193 23.2260235,9.80522529 22.9372164,9.64182782 L22.9372164,9.64182782 Z M13.5607191,0.0308747856 L13.596721,0.0308747856 C13.4660474,0.0308747856 13.3367072,0.0368365043 13.2067004,0.0401485703 C13.3247066,0.0368365043 13.4420462,0.0308747856 13.5607191,0.0308747856 L13.5607191,0.0308747856 Z M71.8044745,10.8527191 C71.8898123,10.8527191 71.9584826,10.9196229 71.9584826,11.0030869 L71.9584826,19.9357288 C71.9577493,20.0196133 71.8889044,20.087127 71.8044745,20.0867606 L69.702363,20.0867606 C69.6179331,20.087127 69.5490882,20.0196133 69.5483548,19.9357288 L69.5483548,11.0030869 C69.5483548,10.9196229 69.6176918,10.8527191 69.702363,10.8527191 L71.8044745,10.8527191 Z M86.666596,17.2516306 C87.4166357,17.2516306 88,17.8464776 88,18.568508 C87.9981611,19.3021262 87.3982977,19.8954619 86.6599289,19.8939968 C86.3066255,19.8964706 85.9669655,19.758618 85.7164485,19.5110807 C85.4659314,19.2635435 85.325316,18.9268335 85.3258566,18.5757946 C85.3258566,17.8531018 85.9172229,17.2516306 86.666596,17.2516306 L86.666596,17.2516306 Z M86.6599289,19.7615142 C86.9793101,19.7645527 87.2865007,19.6398373 87.5123477,19.4154432 C87.7381946,19.1910491 87.8637175,18.8858347 87.8606593,18.568508 C87.8642722,18.2528337 87.7396082,17.94905 87.5148702,17.7258824 C87.2901322,17.5027148 86.9843121,17.3790225 86.666596,17.3827884 C85.9838931,17.3827884 85.4665323,17.9186807 85.4665323,18.5757946 C85.4665323,19.2329085 85.9798929,19.7615142 86.6599289,19.7615142 L86.6599289,19.7615142 Z M87.2872955,18.2843328 C87.2872955,18.5102157 87.1546218,18.6493224 86.961945,18.7043027 L87.3392983,19.2256219 L87.0212814,19.2256219 L86.6819301,18.7466972 L86.3899146,18.7466972 L86.3899146,19.2256219 L86.1232338,19.2256219 L86.1232338,17.8431656 L86.7479336,17.8431656 C87.0732842,17.8431656 87.2872955,18.007444 87.2872955,18.2843328 L87.2872955,18.2843328 Z M86.3899146,18.0796471 L86.3899146,18.5175022 L86.7372664,18.5175022 C86.9106089,18.5175022 87.0139477,18.4340381 87.0139477,18.2982434 C87.0139477,18.156487 86.9106089,18.0796471 86.7372664,18.0796471 L86.3899146,18.0796471 L86.3899146,18.0796471 Z" transform="translate(0 .777)"/>
</svg>
