<svg xmlns="http://www.w3.org/2000/svg" xmlns:xlink="http://www.w3.org/1999/xlink" width="88" height="13" viewBox="0 0 88 13">
  <defs>
    <polygon id="tidal_logo-a" points=".001 .057 5.823 .057 5.823 6 .001 6"/>
    <polygon id="tidal_logo-c" points="0 .056 5.822 .056 5.822 5.999 0 5.999"/>
    <polygon id="tidal_logo-e" points=".002 .056 5.824 .056 5.824 5.999 .002 5.999"/>
  </defs>
  <g fill="none" fill-rule="evenodd" transform="translate(0 .777)">
    <polygon fill="#FFF" points="32.012 11.702 29.753 11.702 29.753 3.526 26.833 3.526 26.833 1.55 34.932 1.55 34.932 3.526 32.012 3.526"/>
    <polygon fill="#FFF" points="41.69 11.702 43.961 11.702 43.961 1.55 41.69 1.55"/>
    <polygon fill="#FFF" points="81.777 1.551 81.777 11.702 87.978 11.702 87.978 9.699 84.049 9.699 84.049 1.551"/>
    <g transform="translate(0 .002)">
      <path fill="#FFF" d="M51.5238003 1.54761553L55.2034786 1.54761553C57.9186952 1.54761553 60.6204436 3.01575146 60.6204436 6.5964699 60.6204436 9.97126602 57.972454 11.6994408 55.3379326 11.6994408L51.5238003 11.6994408 51.5238003 1.54761553zM53.7279663 9.70965437L55.1369935 9.70965437C57.031847 9.70965437 58.2952918 8.5031301 58.2952918 6.58278058 58.2952918 4.75767379 57.0183217 3.52371262 55.1900104 3.52371262L53.7279663 3.52371262 53.7279663 9.70965437zM73.2274765 11.6994699L75.7243481 11.6994699 71.6269837 1.54764466 69.281972 1.54764466 65.1450589 11.6994699 67.5739616 11.6994699 68.3072949 9.6966932 72.5011626 9.6966932 73.2274765 11.6994699zM68.9157048 7.89343107L70.4141588 3.92265437 71.8983455 7.89343107 68.9157048 7.89343107z"/>
      <polygon fill="#FFF" points="11.644 3.027 8.734 5.999 5.822 3.027 8.734 .057"/>
      <g transform="translate(5.821 5.942)">
        <mask id="tidal_logo-b" fill="#fff">
          <use xlink:href="#tidal_logo-a"/>
        </mask>
        <polygon fill="#FFF" points="5.823 3.029 2.913 6 .001 3.029 2.913 .057" mask="url(#tidal_logo-b)"/>
      </g>
      <mask id="tidal_logo-d" fill="#fff">
        <use xlink:href="#tidal_logo-c"/>
      </mask>
      <polygon fill="#FFF" points="5.822 3.027 2.911 5.999 0 3.027 2.911 .056" mask="url(#tidal_logo-d)"/>
      <g transform="translate(11.642)">
        <mask id="tidal_logo-f" fill="#fff">
          <use xlink:href="#tidal_logo-e"/>
        </mask>
        <polygon fill="#FFF" points="5.824 3.027 2.914 5.999 .002 3.027 2.914 .056" mask="url(#tidal_logo-f)"/>
      </g>
    </g>
  </g>
</svg>
