<svg xmlns="http://www.w3.org/2000/svg" xmlns:xlink="http://www.w3.org/1999/xlink" width="88" height="20" viewBox="0 0 88 20">
  <defs>
    <polygon id="yt_logo-a" points="0 .221 28.06 .221 28.06 19.77 0 19.77"/>
    <polygon id="yt_logo-c" points=".029 .145 7.374 .145 7.374 12.807 .029 12.807"/>
  </defs>
  <g fill="none" fill-rule="evenodd" transform="translate(0 -.223)">
    <g transform="translate(0 .01)">
      <mask id="yt_logo-b" fill="#fff">
        <use xlink:href="#yt_logo-a"/>
      </mask>
      <path fill="#FFF" d="M11.2237879,14.1846667 L11.2237879,5.80627586 L18.5136987,9.99547126 L11.2237879,14.1846667 Z M27.4732997,3.2734023 C27.1504021,2.07202299 26.1997249,1.12558621 24.9924388,0.804436782 C22.8042184,0.220758621 14.0296252,0.220758621 14.0296252,0.220758621 C14.0296252,0.220758621 5.25526299,0.220758621 3.06704252,0.804436782 C1.85975643,1.12558621 0.909079265,2.07202299 0.586412598,3.2734023 C-2.30971129e-05,5.45133333 -2.30971129e-05,9.99547126 -2.30971129e-05,9.99547126 C-2.30971129e-05,9.99547126 -2.30971129e-05,14.5396092 0.586412598,16.7175402 C0.909079265,17.9189195 1.85975643,18.8653563 3.06704252,19.1865057 C5.25526299,19.7701839 14.0296252,19.7701839 14.0296252,19.7701839 C14.0296252,19.7701839 22.8042184,19.7701839 24.9924388,19.1865057 C26.1997249,18.8653563 27.1504021,17.9189195 27.4732997,16.7175402 C28.0595045,14.5396092 28.0595045,9.99547126 28.0595045,9.99547126 C28.0595045,9.99547126 28.0595045,5.45133333 27.4732997,3.2734023 L27.4732997,3.2734023 Z" mask="url(#yt_logo-b)"/>
    </g>
    <path fill="#FFF" d="M43.8386436,16.0972414 C43.9922394,15.6981609 44.0693837,15.0457471 44.0693837,14.1402299 L44.0693837,10.3255172 C44.0693837,9.44689655 43.9922394,8.8045977 43.8386436,8.3983908 C43.6845858,7.99241379 43.4136567,7.7891954 43.0258562,7.7891954 C42.651221,7.7891954 42.38699,7.99241379 42.2333942,8.3983908 C42.0793365,8.8045977 42.0026541,9.44689655 42.0026541,10.3255172 L42.0026541,14.1402299 C42.0026541,15.0457471 42.0758719,15.6981609 42.2232315,16.0972414 C42.3703601,16.4967816 42.6378247,16.6963218 43.0258562,16.6963218 C43.4136567,16.6963218 43.6845858,16.4967816 43.8386436,16.0972414 M40.7283864,18.0147126 C40.1731318,17.6422989 39.7784021,17.0627586 39.5446593,16.2770115 C39.3104546,15.4917241 39.1933522,14.4464368 39.1933522,13.1416092 L39.1933522,11.3641379 C39.1933522,10.045977 39.3268535,8.98735632 39.5945491,8.18873563 C39.8620136,7.38988506 40.2800714,6.80735632 40.8487223,6.44114943 C41.4171423,6.07517241 42.163179,5.89195402 43.0861396,5.89195402 C43.9957039,5.89195402 44.7246488,6.0783908 45.2732052,6.45126437 C45.8217617,6.82390805 46.2229585,7.40666667 46.4772577,8.19862069 C46.731095,8.9908046 46.8585911,10.045977 46.8585911,11.3641379 L46.8585911,13.1416092 C46.8585911,14.4464368 46.7347906,15.4951724 46.4874205,16.2871264 C46.2398194,17.0793103 45.8383916,17.6586207 45.283368,18.0245977 C44.7281134,18.3908046 43.9756094,18.5737931 43.0258562,18.5737931 C42.0493102,18.5737931 41.28341,18.3873563 40.7283864,18.0147126"/>
    <g transform="translate(80.609 5.756)">
      <mask id="yt_logo-d" fill="#fff">
        <use xlink:href="#yt_logo-c"/>
      </mask>
      <path fill="#FFF" d="M3.08949291,2.26186207 C2.94929344,2.43496552 2.85528819,2.71795402 2.80863202,3.1105977 C2.76151391,3.50347126 2.7384168,4.09910345 2.7384168,4.89795402 L2.7384168,5.7768046 L4.76495748,5.7768046 L4.76495748,4.89795402 C4.76495748,4.11266667 4.73816483,3.5168046 4.6848105,3.1105977 C4.6312252,2.70462069 4.53444829,2.41841379 4.39378688,2.25197701 C4.25335643,2.08531034 4.0360126,2.00209195 3.74175538,2.00209195 C3.44726719,2.00209195 3.22992336,2.08898851 3.08949291,2.26186207 L3.08949291,2.26186207 Z M2.7384168,7.41450575 L2.7384168,8.03358621 C2.7384168,8.81933333 2.76151391,9.40852874 2.80863202,9.80117241 C2.85528819,10.194046 2.95206509,10.4802529 3.09965564,10.660023 C3.24678425,10.8395632 3.47382887,10.9296782 3.78194436,10.9296782 C4.19630656,10.9296782 4.48063202,10.769908 4.63445879,10.4501379 C4.78805459,10.1305977 4.87189711,9.59818391 4.88529344,8.85243678 L7.27330394,8.9922069 C7.28670026,9.09910345 7.29339843,9.24554023 7.29339843,9.43151724 C7.29339843,10.5634713 6.98228031,11.4089885 6.36027507,11.9682989 C5.73850079,12.5271494 4.85850079,12.8069195 3.72166089,12.8069195 C2.35731444,12.8069195 1.40063202,12.3811724 0.852075591,11.5287586 C0.303288189,10.6768046 0.0293564304,9.35864368 0.0293564304,7.57427586 L0.0293564304,5.43726437 C0.0293564304,3.5997931 0.313450919,2.25864368 0.882332808,1.41289655 C1.45075276,0.567609195 2.42406509,0.144850575 3.80203885,0.144850575 C4.75156115,0.144850575 5.48073701,0.317954023 5.98910446,0.663931034 C6.49724094,1.01036782 6.85524619,1.54967816 7.06265827,2.28163218 C7.27007034,3.01404598 7.37377638,4.02622989 7.37377638,5.31749425 L7.37377638,7.41450575 L2.7384168,7.41450575 Z" mask="url(#yt_logo-d)"/>
    </g>
    <path fill="#FFF" d="M33.9854845 12.9414713L30.8350383 1.61733333 33.5840567 1.61733333 34.6876367 6.7502069C34.9687286 8.01526437 35.1759097 9.09365517 35.309642 9.9856092L35.3900199 9.9856092C35.4835633 9.34652874 35.6909753 8.2748046 36.0120252 6.7702069L37.1557942 1.61733333 39.9048126 1.61733333 36.7144084 12.9414713 36.7144084 18.3741149 33.9854845 18.3741149 33.9854845 12.9414713zM55.7994142 6.13147126L55.7994142 18.374 53.6322121 18.374 53.3913092 16.8762989 53.3312567 16.8762989C52.7425113 18.008023 51.8595087 18.5737701 50.6824798 18.5737701 49.8664588 18.5737701 49.264548 18.3075632 48.8765165 17.7749195 48.488485 17.2425057 48.2947003 16.410092 48.2947003 15.2785977L48.2947003 6.13147126 51.0638131 6.13147126 51.0638131 15.1185977C51.0638131 15.6648046 51.1240966 16.0542299 51.2444325 16.2868736 51.3647685 16.5202069 51.5652514 16.6365287 51.8463433 16.6365287 52.0872462 16.6365287 52.3179864 16.5634253 52.5385638 16.4167586 52.7593722 16.2703218 52.9231307 16.0841149 53.0303013 15.8576782L53.0303013 6.13147126 55.7994142 6.13147126zM70.0032378 6.13147126L70.0032378 18.374 67.8360357 18.374 67.5951328 16.8762989 67.5350803 16.8762989C66.9461039 18.008023 66.0633323 18.5737701 64.8863034 18.5737701 64.0702824 18.5737701 63.4683717 18.3075632 63.0803402 17.7749195 62.6923087 17.2425057 62.4985239 16.410092 62.4985239 15.2785977L62.4985239 6.13147126 65.2676367 6.13147126 65.2676367 15.1185977C65.2676367 15.6648046 65.3276892 16.0542299 65.4480252 16.2868736 65.5685921 16.5202069 65.7690751 16.6365287 66.0501669 16.6365287 66.2910698 16.6365287 66.52181 16.5634253 66.7423874 16.4167586 66.9631958 16.2703218 67.1267234 16.0841149 67.2341249 15.8576782L67.2341249 6.13147126 70.0032378 6.13147126z"/>
    <polygon fill="#FFF" points="63.324 3.835 60.575 3.835 60.575 18.374 57.866 18.374 57.866 3.835 55.117 3.835 55.117 1.618 63.324 1.618"/>
    <path fill="#FFF" d="M76.6296609,13.0822299 C76.6296609,13.9744138 76.5927055,14.6734943 76.5190257,15.1792414 C76.4455769,15.6854483 76.3217764,16.0449885 76.1478551,16.2576322 C75.9739339,16.4707356 75.7394982,16.5771724 75.4457029,16.5771724 C75.2181963,16.5771724 75.0075507,16.5242989 74.8137659,16.4174023 C74.6195192,16.3109655 74.4624588,16.1514253 74.3421228,15.938092 L74.3421228,8.98797701 C74.4354352,8.65533333 74.5959601,8.38222989 74.8236976,8.16912644 C75.0509732,7.95648276 75.2981123,7.84958621 75.5660388,7.84958621 C75.8468997,7.84958621 76.0642436,7.95947126 76.2183013,8.17901149 C76.3718971,8.39878161 76.4790677,8.7682069 76.5391202,9.28774713 C76.5994037,9.80682759 76.6296609,10.5456782 76.6296609,11.5042989 L76.6296609,13.0822299 Z M79.1678026,8.08843678 C79.0005795,7.31648276 78.7296504,6.75717241 78.3552462,6.41073563 C77.980611,6.06498851 77.4653144,5.89165517 76.8100493,5.89165517 C76.3016819,5.89165517 75.8268052,6.03487356 75.3854194,6.32108046 C74.9440336,6.60728736 74.6028892,6.9836092 74.3622173,7.44958621 L74.3418919,7.44958621 L74.3421228,0.998551724 L71.6732514,0.998551724 L71.6732514,18.373954 L73.9605585,18.373954 L74.2416504,17.2155632 L74.3019339,17.2155632 C74.5158131,17.6282069 74.836632,17.9544138 75.2650835,18.1941839 C75.692842,18.4337241 76.1679496,18.5537241 76.6899444,18.5537241 C77.6258394,18.5537241 78.3150572,18.1242989 78.756443,17.2654483 C79.1978289,16.4065977 79.4186373,15.0654483 79.4186373,13.2410805 L79.4186373,11.304069 C79.4186373,9.9328046 79.3350257,8.86085057 79.1678026,8.08843678 L79.1678026,8.08843678 Z"/>
  </g>
</svg>
